{
  "version": "1.1.6",
  "modules": [
    {
      "id": 12,
      "plugin": "Fundamental",
      "version": "1.4.0",
      "model": "Scope",
      "params": [
        {
          "id": 0,
          "value": 5.0
        },
        {
          "id": 1,
          "value": 0.0
        },
        {
          "id": 2,
          "value": 2.0
        },
        {
          "id": 3,
          "value": 0.0
        },
        {
          "id": 4,
          "value": 6.0
        },
        {
          "id": 5,
          "value": 0.0
        },
        {
          "id": 6,
          "value": 0.0
        },
        {
          "id": 7,
          "value": 0.0
        }
      ],
      "data": {
        "lissajous": 0,
        "external": 0
      },
      "pos": [
        35,
        1
      ]
    },
    {
      "id": 13,
      "plugin": "SkJack",
      "version": "1.0.0",
      "model": "JackAudioIn8",
      "params": [],
      "leftModuleId": 38,
      "port_names": [
        "P4Oze3:0",
        "P4Oze3:1",
        "P4Oze3:2",
        "P4Oze3:3",
        "P4Oze3:4",
        "P4Oze3:5",
        "P4Oze3:6",
        "P4Oze3:7"
      ],
      "pos": [
        4,
        1
      ]
    },
    {
      "id": 30,
      "plugin": "Core",
      "version": "1.1.6",
      "model": "AudioInterface",
      "params": [],
      "data": {
        "audio": {
          "driver": 4,
          "deviceName": "system",
          "offset": 0,
          "maxChannels": 8,
          "sampleRate": 48000,
          "blockSize": 1024
        }
      },
      "pos": [
        79,
        0
      ]
    },
    {
      "id": 35,
      "plugin": "AudibleInstruments",
      "version": "1.5.0",
      "model": "Ripples",
      "params": [
        {
          "id": 0,
          "value": 0.357999951
        },
        {
          "id": 1,
          "value": 8.92112923
        },
        {
          "id": 2,
          "value": 0.0699997917
        }
      ],
      "pos": [
        58,
        0
      ]
    },
    {
      "id": 37,
      "plugin": "AudibleInstruments",
      "version": "1.5.0",
      "model": "Plaits",
      "params": [
        {
          "id": 0,
          "value": 0.0
        },
        {
          "id": 1,
          "value": 0.0
        },
        {
          "id": 2,
          "value": -4.0
        },
        {
          "id": 3,
          "value": 0.570000052
        },
        {
          "id": 4,
          "value": 0.561053932
        },
        {
          "id": 5,
          "value": 0.776046216
        },
        {
          "id": 6,
          "value": 0.725510836
        },
        {
          "id": 7,
          "value": 1.0
        },
        {
          "id": 8,
          "value": 0.808238029
        },
        {
          "id": 9,
          "value": 0.829250634
        },
        {
          "id": 10,
          "value": 0.378333628
        }
      ],
      "rightModuleId": 40,
      "data": {
        "lowCpu": false,
        "model": 6
      },
      "pos": [
        24,
        0
      ]
    },
    {
      "id": 38,
      "plugin": "StellareModular-Link",
      "version": "1.1.0",
      "model": "Link2",
      "params": [
        {
          "id": 0,
          "value": 0.0
        },
        {
          "id": 1,
          "value": -0.388854384
        },
        {
          "id": 2,
          "value": 3.0
        },
        {
          "id": 3,
          "value": 0.671671927
        }
      ],
      "rightModuleId": 13,
      "data": {
        "enable_start_stop": false
      },
      "pos": [
        0,
        1
      ]
    },
    {
      "id": 40,
      "plugin": "AudibleInstruments",
      "version": "1.5.0",
      "model": "Shades",
      "params": [
        {
          "id": 0,
          "value": 0.0
        },
        {
          "id": 1,
          "value": 0.161984384
        },
        {
          "id": 2,
          "value": 0.739663184
        },
        {
          "id": 3,
          "value": 0.0
        },
        {
          "id": 4,
          "value": 0.0
        },
        {
          "id": 5,
          "value": 1.0
        }
      ],
      "leftModuleId": 37,
      "pos": [
        36,
        0
      ]
    }
  ],
  "cables": [
    {
      "id": 90,
      "outputModuleId": 40,
      "outputId": 0,
      "inputModuleId": 30,
      "inputId": 1,
      "color": "#0986ad"
    },
    {
      "id": 89,
      "outputModuleId": 40,
      "outputId": 0,
      "inputModuleId": 30,
      "inputId": 0,
      "color": "#0c8e15"
    },
    {
      "id": 93,
      "outputModuleId": 37,
      "outputId": 0,
      "inputModuleId": 40,
      "inputId": 0,
      "color": "#c91847"
    },
    {
      "id": 94,
      "outputModuleId": 13,
      "outputId": 2,
      "inputModuleId": 12,
      "inputId": 0,
      "color": "#0986ad"
    },
    {
      "id": 96,
      "outputModuleId": 13,
      "outputId": 2,
      "inputModuleId": 37,
      "inputId": 2,
      "color": "#0986ad"
    }
  ]
}